<svg width="110" height="110" viewBox="0 0 110 110" fill="none" xmlns="http://www.w3.org/2000/svg">
<rect x="8" y="8" width="94" height="94" rx="47" fill="#FFC436"/>
<path d="M44.2295 56.9583L45.7657 60.0308C46.2856 61.0706 46.5456 61.5905 46.8929 62.0411C47.2011 62.4409 47.5595 62.7993 47.9592 63.1074C48.4098 63.4547 48.9297 63.7147 49.9695 64.2346L53.042 65.7708L49.9695 67.3071C48.9297 67.827 48.4098 68.0869 47.9592 68.4342C47.5595 68.7424 47.2011 69.1008 46.8929 69.5006C46.5456 69.9511 46.2856 70.471 45.7657 71.5109L44.2295 74.5833L42.6933 71.5109C42.1733 70.471 41.9134 69.9511 41.5661 69.5006C41.2579 69.1008 40.8995 68.7424 40.4997 68.4342C40.0492 68.0869 39.5293 67.827 38.4895 67.3071L35.417 65.7708L38.4895 64.2346C39.5293 63.7147 40.0492 63.4547 40.4997 63.1074C40.8995 62.7993 41.2579 62.4409 41.5661 62.0411C41.9134 61.5905 42.1733 61.0706 42.6933 60.0308L44.2295 56.9583Z" stroke="#0F0F0F" stroke-width="3.91667" stroke-linecap="round" stroke-linejoin="round"/>
<path d="M60.8753 35.4167L63.1835 41.4178C63.7357 42.8537 64.0119 43.5717 64.4413 44.1756C64.8219 44.7108 65.2895 45.1785 65.8247 45.559C66.4286 45.9885 67.1466 46.2646 68.5825 46.8169L74.5837 49.125L68.5825 51.4331C67.1466 51.9854 66.4286 52.2615 65.8247 52.691C65.2895 53.0715 64.8219 53.5392 64.4413 54.0744C64.0119 54.6783 63.7357 55.3963 63.1835 56.8322L60.8753 62.8333L58.5672 56.8322C58.0149 55.3963 57.7388 54.6783 57.3094 54.0744C56.9288 53.5392 56.4612 53.0715 55.9259 52.691C55.322 52.2615 54.6041 51.9854 53.1681 51.4331L47.167 49.125L53.1681 46.8169C54.6041 46.2646 55.322 45.9885 55.9259 45.559C56.4612 45.1785 56.9288 44.7108 57.3094 44.1756C57.7388 43.5717 58.0149 42.8537 58.5672 41.4178L60.8753 35.4167Z" stroke="#0F0F0F" stroke-width="3.91667" stroke-linecap="round" stroke-linejoin="round"/>
<rect x="8" y="8" width="94" height="94" rx="47" stroke="white" stroke-opacity="0.9" stroke-width="15.6667"/>
</svg>
