<svg width="48" height="42" viewBox="0 0 48 42" fill="none" xmlns="http://www.w3.org/2000/svg">
<g id="Frame 3">
<path id="Subtract" fill-rule="evenodd" clip-rule="evenodd" d="M47.9752 21.1582C47.9752 32.6641 37.3454 41.9915 24.2329 41.9915C11.1205 41.9915 0.490723 32.6641 0.490723 21.1582C0.490723 9.65223 11.1205 0.324829 24.2329 0.324829C37.3454 0.324829 47.9752 9.65223 47.9752 21.1582ZM10.3832 21.3442C10.3832 20.6414 10.9529 20.0717 11.6556 20.0717H22.7117V10.0261C22.7117 9.32337 23.2814 8.75368 23.9841 8.75368C24.6869 8.75368 25.2566 9.32337 25.2566 10.0261V20.0717H37.6014C38.3041 20.0717 38.8738 20.6414 38.8738 21.3442C38.8738 22.047 38.3041 22.6166 37.6014 22.6166H25.2566V32.4812C25.2566 33.184 24.6869 33.7537 23.9841 33.7537C23.2814 33.7537 22.7117 33.184 22.7117 32.4812V22.6166H11.6556C10.9529 22.6166 10.3832 22.047 10.3832 21.3442Z" fill="#FFC436" fill-opacity="0.78"/>
</g>
</svg>
