<svg width="21" height="21" viewBox="0 0 21 21" fill="none" xmlns="http://www.w3.org/2000/svg">
<path d="M12.167 10.0192H13.0003C13.9208 10.0192 14.667 10.7654 14.667 11.6859V14.1859C14.667 14.8762 15.2266 15.4359 15.917 15.4359C16.6073 15.4359 17.167 14.8762 17.167 14.1859V8.35254L14.667 5.85254" stroke="#0F0F0F" stroke-width="1.75" stroke-linecap="round" stroke-linejoin="round"/>
<path d="M3.83301 17.5194V5.8527C3.83301 4.93223 4.5792 4.18604 5.49967 4.18604H10.4997C11.4201 4.18604 12.1663 4.93223 12.1663 5.8527V17.5194" stroke="#0F0F0F" stroke-width="1.75" stroke-linecap="round" stroke-linejoin="round"/>
<path d="M3 17.5192H13" stroke="#0F0F0F" stroke-width="1.75" stroke-linecap="round" stroke-linejoin="round"/>
<path d="M15.5 6.68604V7.51937C15.5 7.97961 15.8731 8.3527 16.3333 8.3527H17.1667" stroke="#0F0F0F" stroke-width="1.75" stroke-linecap="round" stroke-linejoin="round"/>
<path d="M3.83301 10.0192H12.1663" stroke="#0F0F0F" stroke-width="1.75" stroke-linecap="round" stroke-linejoin="round"/>
</svg>
