<svg width="44" height="43" viewBox="0 0 44 43" fill="none" xmlns="http://www.w3.org/2000/svg">
<path fill-rule="evenodd" clip-rule="evenodd" d="M7.55859 14.7199C7.55859 12.3444 9.48431 10.4176 11.8635 10.4176C13.1756 10.4176 14.276 10.4176 14.276 10.4176V7.05859H22.6742V10.4176H26.036C32.5266 10.4176 37.7899 15.6792 37.7899 22.1689C37.7899 26.0169 37.7899 30.0531 37.7899 32.9876C37.7899 34.127 37.3364 35.2235 36.5293 36.0296C35.7221 36.8358 34.6277 37.2899 33.485 37.2899C27.738 37.2899 17.6105 37.2899 11.8635 37.2899C10.7208 37.2899 9.62643 36.8358 8.81926 36.0296C8.01208 35.2235 7.55859 34.127 7.55859 32.9876C7.55859 27.9732 7.55859 19.7343 7.55859 14.7199Z" stroke="black" stroke-width="5" stroke-miterlimit="1.5" stroke-linecap="round" stroke-linejoin="round"/>
<path fill-rule="evenodd" clip-rule="evenodd" d="M22.6728 17.1797C22.6728 17.1797 27.6675 22.184 27.668 25.3489C27.6685 28.1169 25.4301 30.3643 22.6738 30.3643C19.9176 30.3643 17.6997 28.1169 17.6797 25.3489C17.696 22.1824 22.6728 17.1797 22.6728 17.1797Z" stroke="black" stroke-width="5" stroke-miterlimit="1.5" stroke-linecap="round" stroke-linejoin="round"/>
</svg>
