<svg width="44" height="43" viewBox="0 0 44 43" fill="none" xmlns="http://www.w3.org/2000/svg">
<path d="M38.1111 17.8809C38.1167 15.7655 37.7056 13.6696 36.9013 11.7131C36.097 9.75648 34.9151 7.97749 33.4233 6.47765C30.4103 3.44858 26.3175 1.74047 22.0452 1.72906C17.7728 1.71766 13.671 3.4039 10.6419 6.41684C7.61283 9.42977 5.90471 13.5226 5.8933 17.7949C5.85547 22.7583 7.29628 27.6205 10.0321 31.7619C12.768 35.9033 16.6749 39.1363 21.2551 41.049C21.4892 41.155 21.7434 41.2094 22.0004 41.2084C22.2593 41.2089 22.5152 41.1539 22.7511 41.0472C27.3173 39.1403 31.2146 35.9208 33.9491 31.7966C36.6835 27.6724 38.1321 22.8292 38.1111 17.8809ZM22.0004 37.4459C18.2234 35.7831 15.0206 33.0436 12.7924 29.57C10.5642 26.0965 9.40966 22.0431 9.47305 17.9168C9.47305 16.2717 9.79708 14.6427 10.4266 13.1228C11.0562 11.6029 11.979 10.2219 13.1422 9.05861C14.3055 7.89534 15.6865 6.97258 17.2064 6.34302C18.7263 5.71346 20.3553 5.38944 22.0004 5.38944C23.6455 5.38944 25.2745 5.71346 26.7944 6.34302C28.3143 6.97258 29.6953 7.89534 30.8585 9.05861C32.0218 10.2219 32.9446 11.6029 33.5741 13.1228C34.2037 14.6427 34.5277 16.2717 34.5277 17.9168C34.5277 17.9544 34.5277 17.9974 34.5277 18.0332C34.5712 22.1405 33.407 26.17 31.1799 29.6212C28.9527 33.0724 25.7607 35.7933 22.0004 37.4459ZM22.0004 10.7501C20.583 10.7501 19.1974 11.1704 18.0188 11.9579C16.8403 12.7454 15.9217 13.8647 15.3793 15.1742C14.8368 16.4837 14.6949 17.9247 14.9714 19.3149C15.248 20.7051 15.9305 21.9821 16.9328 22.9844C17.9351 23.9866 19.212 24.6692 20.6022 24.9457C21.9924 25.2223 23.4334 25.0803 24.743 24.5379C26.0525 23.9955 27.1718 23.0769 27.9593 21.8984C28.7467 20.7198 29.1671 19.3342 29.1671 17.9168C29.1671 16.0161 28.412 14.1932 27.068 12.8492C25.724 11.5052 23.9011 10.7501 22.0004 10.7501ZM22.0004 21.5001C21.2917 21.5001 20.5989 21.2899 20.0096 20.8962C19.4203 20.5025 18.961 19.9428 18.6898 19.288C18.4186 18.6333 18.3476 17.9128 18.4859 17.2177C18.6242 16.5226 18.9655 15.8841 19.4666 15.383C19.9677 14.8818 20.6062 14.5406 21.3013 14.4023C21.9964 14.264 22.7169 14.335 23.3717 14.6062C24.0264 14.8774 24.5861 15.3367 24.9798 15.926C25.3736 16.5153 25.5837 17.2081 25.5837 17.9168C25.5837 18.8671 25.2062 19.7786 24.5342 20.4506C23.8622 21.1226 22.9507 21.5001 22.0004 21.5001Z" fill="black"/>
</svg>
