<svg width="20" height="21" viewBox="0 0 20 21" fill="none" xmlns="http://www.w3.org/2000/svg">
<path d="M18.3337 18.3525V16.6859C18.3337 15.1327 17.2713 13.8276 15.8337 13.4576M12.917 3.59484C14.1386 4.08933 15.0003 5.28696 15.0003 6.68587C15.0003 8.08478 14.1386 9.28242 12.917 9.77691M14.167 18.3525C14.167 16.7994 14.167 16.0228 13.9133 15.4103C13.5749 14.5935 12.926 13.9446 12.1093 13.6063C11.4967 13.3525 10.7201 13.3525 9.16699 13.3525H6.66699C5.11385 13.3525 4.33728 13.3525 3.72471 13.6063C2.90795 13.9446 2.25904 14.5935 1.92073 15.4103C1.66699 16.0228 1.66699 16.7994 1.66699 18.3525M11.2503 6.68587C11.2503 8.52682 9.75794 10.0192 7.91699 10.0192C6.07604 10.0192 4.58366 8.52682 4.58366 6.68587C4.58366 4.84492 6.07604 3.35254 7.91699 3.35254C9.75794 3.35254 11.2503 4.84492 11.2503 6.68587Z" stroke="black" stroke-width="1.5" stroke-linecap="round" stroke-linejoin="round"/>
</svg>
