<svg width="21" height="21" viewBox="0 0 21 21" fill="none" xmlns="http://www.w3.org/2000/svg">
<path d="M10.5003 2.51904V4.60238M10.5003 2.51904C5.89795 2.51904 2.16699 6.25 2.16699 10.8524M10.5003 2.51904C15.1027 2.51904 18.8337 6.25 18.8337 10.8524M10.5003 17.1024V19.1857M10.5003 19.1857C15.1027 19.1857 18.8337 15.4548 18.8337 10.8524M10.5003 19.1857C5.89795 19.1857 2.16699 15.4548 2.16699 10.8524M4.25033 10.8524H2.16699M18.8337 10.8524H16.7503M16.399 16.7511L14.9209 15.2729M4.60168 16.7511L6.08129 15.2715M4.60168 5.01904L6.04873 6.46608M16.399 5.01904L11.7502 9.60238M12.167 10.8524C12.167 11.7729 11.4208 12.519 10.5003 12.519C9.57985 12.519 8.83366 11.7729 8.83366 10.8524C8.83366 9.9319 9.57985 9.18571 10.5003 9.18571C11.4208 9.18571 12.167 9.9319 12.167 10.8524Z" stroke="black" stroke-width="1.5" stroke-linecap="round" stroke-linejoin="round"/>
</svg>
