<svg width="44" height="43" viewBox="0 0 44 43" fill="none" xmlns="http://www.w3.org/2000/svg">
<path d="M2.88879 14.4663C2.15147 15.1263 2.08872 16.2589 2.74865 16.9963C3.40856 17.7336 4.54125 17.7963 5.27855 17.1364L2.88879 14.4663ZM38.7221 17.1364C39.4594 17.7963 40.5921 17.7336 41.252 16.9963C41.912 16.2589 41.8491 15.1263 41.1119 14.4663L38.7221 17.1364ZM22.0003 34.0415C21.0108 34.0415 20.2087 34.8436 20.2087 35.8332C20.2087 36.8227 21.0108 37.6248 22.0003 37.6248V34.0415ZM22.0183 37.6248C23.0078 37.6248 23.8099 36.8227 23.8099 35.8332C23.8099 34.8436 23.0078 34.0415 22.0183 34.0415V37.6248ZM26.8208 30.5298C27.5527 31.1956 28.6859 31.142 29.3517 30.4102C30.0177 29.6781 29.9639 28.545 29.232 27.8791L26.8208 30.5298ZM32.8469 23.9012C33.5788 24.567 34.712 24.5134 35.3778 23.7813C36.0436 23.0494 35.99 21.9162 35.2581 21.2504L32.8469 23.9012ZM14.7687 27.8791C14.0367 28.545 13.9831 29.6781 14.6489 30.4102C15.3147 31.142 16.4479 31.1956 17.1799 30.5298L14.7687 27.8791ZM8.74262 21.2504C8.01063 21.9162 7.95699 23.0494 8.62282 23.7813C9.28866 24.5134 10.4218 24.567 11.1538 23.9012L8.74262 21.2504ZM5.27855 17.1364C9.71746 13.1635 15.5749 10.7498 22.0003 10.7498V7.1665C14.6594 7.1665 7.95926 9.92814 2.88879 14.4663L5.27855 17.1364ZM22.0003 10.7498C28.4258 10.7498 34.2833 13.1635 38.7221 17.1364L41.1119 14.4663C36.0415 9.92814 29.3412 7.1665 22.0003 7.1665V10.7498ZM22.0003 37.6248H22.0183V34.0415H22.0003V37.6248ZM22.0003 28.6665C23.8578 28.6665 25.5466 29.3708 26.8208 30.5298L29.232 27.8791C27.3239 26.1435 24.7839 25.0832 22.0003 25.0832V28.6665ZM22.0003 19.7082C26.1783 19.7082 29.9815 21.2947 32.8469 23.9012L35.2581 21.2504C31.7588 18.0674 27.1043 16.1248 22.0003 16.1248V19.7082ZM17.1799 30.5298C18.4541 29.3708 20.1429 28.6665 22.0003 28.6665V25.0832C19.2168 25.0832 16.6768 26.1435 14.7687 27.8791L17.1799 30.5298ZM11.1538 23.9012C14.0193 21.2947 17.8224 19.7082 22.0003 19.7082V16.1248C16.8964 16.1248 12.2419 18.0674 8.74262 21.2504L11.1538 23.9012Z" fill="black"/>
</svg>
